# xmcd CD database file
#
# Track frame offsets:
#	150
#	23834
#	47756
#	66503
#	93177
#	115227
#	137496
#	155812
#	178911
#	202039
#	225148
#
# Disc length: 3269 seconds
#
# Revision: 2
# Processed by: cddbd v1.4PL0 Copyright (c) Steve Scherf et al.
# Submitted via: CDex 1.50
#
DISCID=930cc30b
DTITLE=Various Artist - Buddha Bar (Disk III)
DYEAR=2002
DGENRE=New Age
TTITLE0=Govind Bolo
TTITLE1=War Dance
TTITLE2=The Peace will Come
TTITLE3=Shlomit
TTITLE4=Nadan Harmony
TTITLE5=Olida
TTITLE6=The Flute Dance
TTITLE7=MEns Cry
TTITLE8=Indian Ballad
TTITLE9=Spanish Illusion
TTITLE10=Love Night
EXTD=YEAR: 2002
EXTT0=
EXTT1=
EXTT2=
EXTT3=
EXTT4=
EXTT5=
EXTT6=
EXTT7=
EXTT8=
EXTT9=
EXTT10=
PLAYORDER=
